<?xml version="1.0" encoding="UTF-8"?>
<!DOCTYPE svg PUBLIC "-//W3C//DTD SVG 1.1//EN" "http://www.w3.org/Graphics/SVG/1.1/DTD/svg11.dtd">
<svg xmlns="http://www.w3.org/2000/svg" version="1.1" width="889px" height="901px" style="shape-rendering:geometricPrecision; text-rendering:geometricPrecision; image-rendering:optimizeQuality; fill-rule:evenodd; clip-rule:evenodd" xmlns:xlink="http://www.w3.org/1999/xlink">
<g><path style="opacity:0.535" fill="#9fbce1" d="M 494.5,-0.5 C 503.833,-0.5 513.167,-0.5 522.5,-0.5C 565.013,3.54559 606.013,14.0456 645.5,31C 648.529,31.539 651.529,32.2057 654.5,33C 691.827,56.9923 723.327,87.1589 749,123.5C 759.329,139.163 766.662,156.163 771,174.5C 771.499,179.489 771.666,184.489 771.5,189.5C 770.609,188.89 769.609,188.557 768.5,188.5C 767.428,183.901 765.594,179.567 763,175.5C 727.519,128.02 683.019,91.5202 629.5,66C 574.107,42.9783 516.44,32.3116 456.5,34C 456.167,34.3333 455.833,34.6667 455.5,35C 474.555,35.8761 493.555,37.5428 512.5,40C 483.213,38.1255 453.88,37.1255 424.5,37C 426.5,37.3333 428.5,37.6667 430.5,38C 328.197,45.9623 238.531,83.2956 161.5,150C 154.667,156.833 147.833,163.667 141,170.5C 140.667,171.833 140.333,173.167 140,174.5C 120.822,192.003 103.488,211.003 88,231.5C 65.529,267.106 46.1956,304.439 30,343.5C 16.4729,381.75 9.13959,421.084 8,461.5C 6.49357,506.776 12.1602,551.109 25,594.5C 27.8757,602.963 31.0424,611.296 34.5,619.5C 31.6955,618.259 29.5288,616.259 28,613.5C 16.5242,590.738 8.85751,566.738 5,541.5C 2.82239,528.065 0.989057,514.731 -0.5,501.5C -0.5,486.167 -0.5,470.833 -0.5,455.5C 0.248714,451.946 1.08205,448.28 2,444.5C 2.63681,442.697 3.80348,441.364 5.5,440.5C 1.93232,403.501 8.09899,368.168 24,334.5C 31.5925,317.634 40.4259,301.634 50.5,286.5C 48.4516,291.599 46.1183,296.599 43.5,301.5C 43.6667,301.833 43.8333,302.167 44,302.5C 46.3745,300.461 48.3745,298.128 50,295.5C 58.0787,279.675 66.412,264.008 75,248.5C 75.7401,247.251 75.5735,246.251 74.5,245.5C 82.162,232.849 89.3287,219.849 96,206.5C 100.036,202.296 104.202,198.296 108.5,194.5C 103.352,201.441 98.185,208.441 93,215.5C 91.8129,217.044 91.4795,218.711 92,220.5C 102.326,207.677 113.16,195.343 124.5,183.5C 129.5,178.833 134.5,174.167 139.5,169.5C 140.167,169.5 140.5,169.167 140.5,168.5C 141.167,168.5 141.5,168.167 141.5,167.5C 142.167,167.5 142.5,167.167 142.5,166.5C 143.167,166.5 143.5,166.167 143.5,165.5C 144.167,165.5 144.5,165.167 144.5,164.5C 145.167,164.5 145.5,164.167 145.5,163.5C 146.167,163.5 146.5,163.167 146.5,162.5C 147.167,162.5 147.5,162.167 147.5,161.5C 148.167,160.5 148.833,159.5 149.5,158.5C 172.941,135.885 198.275,115.718 225.5,98C 214.858,103.165 204.525,109.165 194.5,116C 179.744,126.701 165.411,137.868 151.5,149.5C 158.627,140.539 166.627,132.372 175.5,125C 201.593,103.45 229.26,84.1167 258.5,67C 305.51,41.9973 355.51,26.664 408.5,21C 421.684,18.7634 434.684,15.7634 447.5,12C 443.886,11.0551 440.219,10.3884 436.5,10C 445.167,9.33333 453.833,9.33333 462.5,10C 480.452,12.5884 498.452,14.7551 516.5,16.5C 521.524,16.2469 526.524,15.7469 531.5,15C 510.705,10.3082 489.705,6.64154 468.5,4C 477.171,1.83833 485.837,0.338332 494.5,-0.5 Z"/></g>
<g><path style="opacity:0.409" fill="#9fbce1" d="M 292.5,33.5 C 295.85,33.335 299.183,33.5017 302.5,34C 289.892,42.8067 276.225,49.1401 261.5,53C 271.561,45.975 281.894,39.475 292.5,33.5 Z"/></g>
<g><path style="opacity:0.794" fill="#96cbe1" d="M 768.5,188.5 C 767.833,188.5 767.5,188.167 767.5,187.5C 755.806,176.017 743.806,165.017 731.5,154.5C 730.5,153.167 729.5,151.833 728.5,150.5C 723.776,142.937 717.776,136.437 710.5,131C 702.358,124.595 693.358,119.762 683.5,116.5C 672.826,110.83 662.159,105.163 651.5,99.5C 631.9,88.8008 611.233,80.9675 589.5,76C 591.396,77.0646 591.563,77.8979 590,78.5C 562.797,71.0755 535.631,63.7421 508.5,56.5C 502.842,55.4062 497.175,54.4062 491.5,53.5C 490.048,52.6981 488.382,52.1981 486.5,52C 467.812,51.2021 449.145,51.5354 430.5,53C 395.977,57.1047 361.977,63.7714 328.5,73C 326.5,73.6667 324.5,74.3333 322.5,75C 326.157,74.8922 329.823,74.8922 333.5,75C 320.435,81.5323 306.769,86.3656 292.5,89.5C 291.5,89.3333 290.5,89.1667 289.5,89C 291.001,87.7485 292.668,86.7485 294.5,86C 285.939,88.4357 277.606,91.769 269.5,96C 262.833,100.333 256.167,104.667 249.5,109C 232.787,122.715 215.787,136.048 198.5,149C 196.598,150.301 194.598,150.968 192.5,151C 201.577,141.919 211.243,133.586 221.5,126C 208.539,132.598 196.706,141.098 186,151.5C 184.333,153.833 182.667,156.167 181,158.5C 142.999,193.47 110.666,232.803 84,276.5C 82.4877,278.957 81.1544,278.957 80,276.5C 64.635,303.558 52.3017,331.892 43,361.5C 41.3333,368.167 39.6667,374.833 38,381.5C 38.318,393.157 38.318,404.823 38,416.5C 34.7921,434.46 31.7921,452.46 29,470.5C 28.025,488.551 28.525,506.551 30.5,524.5C 30.3333,526.167 30.1667,527.833 30,529.5C 29.7216,528.584 29.2216,527.918 28.5,527.5C 25.8183,509.866 23.3183,492.2 21,474.5C 20.6827,472.699 20.016,472.366 19,473.5C 17.8802,477.974 16.7135,482.307 15.5,486.5C 15.6495,485.448 15.4828,484.448 15,483.5C 13.3066,494.63 13.14,505.63 14.5,516.5C 14.5,516.833 14.5,517.167 14.5,517.5C 18.5689,551.436 26.2356,584.436 37.5,616.5C 38.3635,618.895 38.3635,621.229 37.5,623.5C 36.016,622.533 35.016,621.2 34.5,619.5C 31.0424,611.296 27.8757,602.963 25,594.5C 12.1602,551.109 6.49357,506.776 8,461.5C 9.13959,421.084 16.4729,381.75 30,343.5C 46.1956,304.439 65.529,267.106 88,231.5C 103.488,211.003 120.822,192.003 140,174.5C 140.333,173.167 140.667,171.833 141,170.5C 147.833,163.667 154.667,156.833 161.5,150C 238.531,83.2956 328.197,45.9623 430.5,38C 428.5,37.6667 426.5,37.3333 424.5,37C 453.88,37.1255 483.213,38.1255 512.5,40C 493.555,37.5428 474.555,35.8761 455.5,35C 455.833,34.6667 456.167,34.3333 456.5,34C 516.44,32.3116 574.107,42.9783 629.5,66C 683.019,91.5202 727.519,128.02 763,175.5C 765.594,179.567 767.428,183.901 768.5,188.5 Z"/></g>
<g><path style="opacity:0.535" fill="#9fbce2" d="M 491.5,53.5 C 469.341,53.3116 447.674,56.4782 426.5,63C 400.184,66.8301 374.184,72.1634 348.5,79C 345.554,79.8061 342.888,81.1395 340.5,83C 345.661,84.7973 350.995,85.7973 356.5,86C 344.636,98.8534 329.969,103.853 312.5,101C 311.328,99.1316 311.495,97.2983 313,95.5C 315.748,93.5421 318.582,91.7088 321.5,90C 308.982,92.2577 297.649,97.2577 287.5,105C 276.091,116.663 266.258,129.496 258,143.5C 250.833,150 243.667,156.5 236.5,163C 233.673,164.623 230.673,165.79 227.5,166.5C 224.167,165.379 223.667,163.379 226,160.5C 233.688,151.646 241.188,142.646 248.5,133.5C 246.163,132.488 243.83,132.655 241.5,134C 233.083,139.746 225.25,146.246 218,153.5C 214.632,161.636 210.966,169.636 207,177.5C 195.667,189.5 184.333,201.5 173,213.5C 157.282,233.55 141.949,253.883 127,274.5C 124.01,278.415 120.177,280.248 115.5,280C 114.54,278.581 113.707,277.081 113,275.5C 101.143,296.548 89.8092,317.881 79,339.5C 73.7037,352.185 70.2037,365.352 68.5,379C 69.3672,383.873 71.8672,387.706 76,390.5C 80.1656,400.417 81.4989,410.751 80,421.5C 76.4872,430.029 72.4872,438.362 68,446.5C 63.0749,459.716 60.4082,473.382 60,487.5C 59.6667,498.833 59.3333,510.167 59,521.5C 58.1667,519.833 57.3333,518.167 56.5,516.5C 55.7261,515.289 54.8928,515.289 54,516.5C 52.1089,524.363 50.2756,532.196 48.5,540C 47.5,540.667 46.5,540.667 45.5,540C 44.283,538.352 43.4497,536.519 43,534.5C 42.5665,543.978 42.7332,553.478 43.5,563C 43.1639,564.03 42.4972,564.53 41.5,564.5C 41.5,563.833 41.1667,563.5 40.5,563.5C 40.5,562.833 40.1667,562.5 39.5,562.5C 39.1667,561.833 38.8333,561.167 38.5,560.5C 38.5,559.833 38.1667,559.5 37.5,559.5C 37.5,559.167 37.5,558.833 37.5,558.5C 33.8681,549.284 30.8681,539.95 28.5,530.5C 28.5,529.5 28.5,528.5 28.5,527.5C 29.2216,527.918 29.7216,528.584 30,529.5C 30.1667,527.833 30.3333,526.167 30.5,524.5C 28.525,506.551 28.025,488.551 29,470.5C 31.7921,452.46 34.7921,434.46 38,416.5C 38.318,404.823 38.318,393.157 38,381.5C 39.6667,374.833 41.3333,368.167 43,361.5C 52.3017,331.892 64.635,303.558 80,276.5C 81.1544,278.957 82.4877,278.957 84,276.5C 110.666,232.803 142.999,193.47 181,158.5C 182.667,156.167 184.333,153.833 186,151.5C 196.706,141.098 208.539,132.598 221.5,126C 211.243,133.586 201.577,141.919 192.5,151C 194.598,150.968 196.598,150.301 198.5,149C 215.787,136.048 232.787,122.715 249.5,109C 256.167,104.667 262.833,100.333 269.5,96C 277.606,91.769 285.939,88.4357 294.5,86C 292.668,86.7485 291.001,87.7485 289.5,89C 290.5,89.1667 291.5,89.3333 292.5,89.5C 306.769,86.3656 320.435,81.5323 333.5,75C 329.823,74.8922 326.157,74.8922 322.5,75C 324.5,74.3333 326.5,73.6667 328.5,73C 361.977,63.7714 395.977,57.1047 430.5,53C 449.145,51.5354 467.812,51.2021 486.5,52C 488.382,52.1981 490.048,52.6981 491.5,53.5 Z"/></g>
<g><path style="opacity:0.509" fill="#9fbce2" d="M 508.5,56.5 C 535.631,63.7421 562.797,71.0755 590,78.5C 591.563,77.8979 591.396,77.0646 589.5,76C 611.233,80.9675 631.9,88.8008 651.5,99.5C 638.198,93.7872 624.531,88.9539 610.5,85C 606.527,84.0023 602.527,83.6689 598.5,84C 597.793,87.0712 598.793,89.7378 601.5,92C 580.93,88.5909 560.93,82.9243 541.5,75C 531.02,67.7638 520.02,61.5972 508.5,56.5 Z"/></g>
<g><path style="opacity:0.496" fill="#9fbce1" d="M 233.5,64.5 C 234.525,64.8966 234.692,65.5632 234,66.5C 228.532,70.9666 223.365,75.8 218.5,81C 203.304,91.1908 188.971,102.524 175.5,115C 158.5,132.667 141.5,150.333 124.5,168C 112.868,177.298 102.201,187.631 92.5,199C 91.2068,199.49 89.8734,199.657 88.5,199.5C 88.3359,196.813 88.5026,194.146 89,191.5C 126.178,136.477 174.345,94.1441 233.5,64.5 Z"/></g>
<g><path style="opacity:0.771" fill="#97c8e2" d="M 289.5,64.5 C 290.873,64.3433 292.207,64.51 293.5,65C 283.4,70.2261 273.067,74.5595 262.5,78C 271.561,73.4696 280.561,68.9696 289.5,64.5 Z"/></g>
<g><path style="opacity:0.785" fill="#96cae1" d="M 149.5,158.5 C 149.077,157.735 148.743,156.902 148.5,156C 149.32,154.2 149.986,152.366 150.5,150.5C 151.167,150.5 151.5,150.167 151.5,149.5C 165.411,137.868 179.744,126.701 194.5,116C 204.525,109.165 214.858,103.165 225.5,98C 198.275,115.718 172.941,135.885 149.5,158.5 Z"/></g>
<g><path style="opacity:0.416" fill="#8fd1e0" d="M 683.5,116.5 C 693.358,119.762 702.358,124.595 710.5,131C 717.776,136.437 723.776,142.937 728.5,150.5C 714.61,137.599 699.61,126.265 683.5,116.5 Z"/></g>
<g><path style="opacity:0.465" fill="#8fd1e0" d="M 150.5,150.5 C 149.986,152.366 149.32,154.2 148.5,156C 148.743,156.902 149.077,157.735 149.5,158.5C 148.833,159.5 148.167,160.5 147.5,161.5C 146.833,161.5 146.5,161.833 146.5,162.5C 145.833,162.5 145.5,162.833 145.5,163.5C 144.833,163.5 144.5,163.833 144.5,164.5C 143.833,164.5 143.5,164.833 143.5,165.5C 142.833,165.5 142.5,165.833 142.5,166.5C 141.833,166.5 141.5,166.833 141.5,167.5C 140.833,167.5 140.5,167.833 140.5,168.5C 139.833,168.5 139.5,168.833 139.5,169.5C 134.5,174.167 129.5,178.833 124.5,183.5C 119.5,186.833 114.5,190.167 109.5,193.5C 122.1,178.232 135.766,163.898 150.5,150.5 Z"/></g>
<g><path style="opacity:0.434" fill="#9fbce2" d="M 731.5,154.5 C 743.806,165.017 755.806,176.017 767.5,187.5C 758.875,182.179 750.542,176.345 742.5,170C 738.614,164.954 734.947,159.787 731.5,154.5 Z"/></g>
<g><path style="opacity:0.786" fill="#96cae1" d="M 124.5,183.5 C 113.16,195.343 102.326,207.677 92,220.5C 91.4795,218.711 91.8129,217.044 93,215.5C 98.185,208.441 103.352,201.441 108.5,194.5C 109.167,194.5 109.5,194.167 109.5,193.5C 114.5,190.167 119.5,186.833 124.5,183.5 Z"/></g>
<g><path style="opacity:0.231" fill="#90d0e0" d="M 768.5,189.5 C 768.5,189.167 768.5,188.833 768.5,188.5C 769.609,188.557 770.609,188.89 771.5,189.5C 772.11,190.391 772.443,191.391 772.5,192.5C 771.167,191.5 769.833,190.5 768.5,189.5 Z"/></g>
<g><path style="opacity:0.509" fill="#9fbce1" d="M 768.5,189.5 C 769.833,190.5 771.167,191.5 772.5,192.5C 785.475,210.429 797.975,228.762 810,247.5C 819.628,264.423 828.462,281.756 836.5,299.5C 836.5,300.5 836.5,301.5 836.5,302.5C 836.5,303.167 836.833,303.5 837.5,303.5C 837.5,303.833 837.5,304.167 837.5,304.5C 837.328,305.492 837.662,306.158 838.5,306.5C 838.5,306.833 838.5,307.167 838.5,307.5C 841.974,318.725 845.14,330.059 848,341.5C 849.968,349.72 850.801,358.053 850.5,366.5C 848.856,366.714 847.356,366.38 846,365.5C 844,362.167 842,358.833 840,355.5C 830.68,316.872 817.014,279.872 799,244.5C 788.809,226.112 778.642,207.779 768.5,189.5 Z"/></g>
<g><path style="opacity:0.792" fill="#96cbe1" d="M 772.5,192.5 C 775.13,194.628 777.63,196.961 780,199.5C 787.757,208.712 795.257,218.045 802.5,227.5C 850.346,289.837 876.846,360.503 882,439.5C 885.365,501.35 876.532,561.35 855.5,619.5C 854.649,621.882 853.316,623.882 851.5,625.5C 849.814,627.016 847.981,628.35 846,629.5C 845.055,629.095 844.388,628.428 844,627.5C 841.241,631.407 838.741,635.407 836.5,639.5C 839.148,631.241 841.314,622.908 843,614.5C 838.867,621.769 835.034,629.102 831.5,636.5C 833.727,627.727 837.227,619.393 842,611.5C 844.333,605.167 846.667,598.833 849,592.5C 854.432,572.67 859.099,552.67 863,532.5C 863.667,537.833 863.667,543.167 863,548.5C 857.965,566.922 852.965,585.255 848,603.5C 872.17,538.641 879.503,471.975 870,403.5C 866.311,394.204 864.645,384.538 865,374.5C 861.226,350.511 854.226,327.511 844,305.5C 843.517,306.448 843.351,307.448 843.5,308.5C 841.871,304.888 839.538,301.888 836.5,299.5C 828.462,281.756 819.628,264.423 810,247.5C 797.975,228.762 785.475,210.429 772.5,192.5 Z"/></g>
<g><path style="opacity:0.482" fill="#9fbce1" d="M 72.5,224.5 C 74.7224,224.559 75.7224,225.725 75.5,228C 74.9011,231.229 74.0678,234.396 73,237.5C 67.5873,247.994 61.9206,258.327 56,268.5C 52.8821,273.286 49.3821,277.786 45.5,282C 42.7658,282.21 40.2658,283.044 38,284.5C 45.6146,262.271 57.1146,242.271 72.5,224.5 Z"/></g>
<g><path style="opacity:0.506" fill="#9fbce2" d="M 802.5,227.5 C 811.753,237.617 821.253,247.617 831,257.5C 865.718,311.821 884.885,371.154 888.5,435.5C 888.5,451.833 888.5,468.167 888.5,484.5C 885.55,526.19 878.05,567.19 866,607.5C 862.247,611.385 858.747,615.385 855.5,619.5C 876.532,561.35 885.365,501.35 882,439.5C 876.846,360.503 850.346,289.837 802.5,227.5 Z"/></g>
<g><path style="opacity:0.775" fill="#95cbe1" d="M 74.5,245.5 C 75.5735,246.251 75.7401,247.251 75,248.5C 66.412,264.008 58.0787,279.675 50,295.5C 48.3745,298.128 46.3745,300.461 44,302.5C 43.8333,302.167 43.6667,301.833 43.5,301.5C 46.1183,296.599 48.4516,291.599 50.5,286.5C 53.3296,280.17 56.663,274.17 60.5,268.5C 64.6654,262.842 68.3321,256.842 71.5,250.5C 72.075,248.589 73.075,246.922 74.5,245.5 Z"/></g>
<g><path style="opacity:0.309" fill="#8fd1e0" d="M 71.5,250.5 C 68.3321,256.842 64.6654,262.842 60.5,268.5C 63.166,261.824 66.8327,255.824 71.5,250.5 Z"/></g>
<g><path style="opacity:0.773" fill="#98c7e2" d="M 92.5,265.5 C 93.2674,266.172 93.9341,267.005 94.5,268C 90.2886,274.253 86.4553,280.753 83,287.5C 82.3333,286.167 82.3333,284.833 83,283.5C 85.9246,277.315 89.0913,271.315 92.5,265.5 Z"/></g>
<g><path style="opacity:0.386" fill="#9fbce1" d="M 134.5,270.5 C 135.586,270.62 136.253,271.287 136.5,272.5C 133.211,282.178 134.378,282.845 140,274.5C 140.167,274.833 140.333,275.167 140.5,275.5C 136.108,281.228 132.108,287.228 128.5,293.5C 127.119,293 126.453,292 126.5,290.5C 128.082,283.346 130.748,276.679 134.5,270.5 Z"/></g>
<g><path style="opacity:0.46" fill="#8fd1e0" d="M 836.5,299.5 C 839.538,301.888 841.871,304.888 843.5,308.5C 847.267,316.126 850.267,324.126 852.5,332.5C 854.481,341.053 855.814,349.72 856.5,358.5C 851.693,341.08 845.693,324.08 838.5,307.5C 838.5,307.167 838.5,306.833 838.5,306.5C 838.672,305.508 838.338,304.842 837.5,304.5C 837.5,304.167 837.5,303.833 837.5,303.5C 836.833,303.5 836.5,303.167 836.5,302.5C 836.5,301.5 836.5,300.5 836.5,299.5 Z"/></g>
<g><path style="opacity:0.531" fill="#a0bce2" d="M 831.5,636.5 C 825.582,647.336 819.915,658.336 814.5,669.5C 807.585,682.337 799.918,694.67 791.5,706.5C 790.833,706.5 790.5,706.833 790.5,707.5C 789.094,707.973 788.427,708.973 788.5,710.5C 787.833,710.5 787.5,710.833 787.5,711.5C 786.833,711.5 786.5,711.833 786.5,712.5C 785.833,712.5 785.5,712.833 785.5,713.5C 769.534,732.467 752.2,750.133 733.5,766.5C 714.244,782.094 693.91,796.094 672.5,808.5C 653.984,818.062 634.984,826.562 615.5,834C 618.233,835.228 618.9,837.061 617.5,839.5C 616.833,839.5 616.5,839.833 616.5,840.5C 614.668,841.248 613.001,842.248 611.5,843.5C 610.833,843.5 610.5,843.833 610.5,844.5C 599.256,848.809 587.922,852.809 576.5,856.5C 562.921,860.025 549.588,863.359 536.5,866.5C 533.193,867.051 529.86,867.384 526.5,867.5C 524.901,867.232 523.568,867.566 522.5,868.5C 522.167,868.5 521.833,868.5 521.5,868.5C 501.531,870.33 481.531,871.83 461.5,873C 456.958,873.867 452.625,875.033 448.5,876.5C 448.167,876.5 447.833,876.5 447.5,876.5C 446.833,876.5 446.5,876.833 446.5,877.5C 438.981,877.825 431.648,877.492 424.5,876.5C 425.952,875.698 427.618,875.198 429.5,875C 414.351,872.464 399.351,869.13 384.5,865C 360.508,857.168 336.841,848.502 313.5,839C 306.291,836.318 298.957,834.151 291.5,832.5C 300.378,839.527 309.711,846.027 319.5,852C 311.91,851.221 304.576,849.221 297.5,846C 280.267,838.384 263.6,829.717 247.5,820C 224.949,804.233 202.283,788.733 179.5,773.5C 185.237,779.216 191.237,784.716 197.5,790C 212.326,800.58 227.326,810.914 242.5,821C 245.039,823.37 247.372,825.87 249.5,828.5C 209.668,808.191 174.168,781.858 143,749.5C 131.258,733.937 119.758,718.27 108.5,702.5C 108.938,702.565 109.272,702.399 109.5,702C 100.056,691.338 95.5558,678.838 96,664.5C 93.8825,658.264 91.2159,652.264 88,646.5C 89.8246,654.132 91.4913,661.798 93,669.5C 89.2974,666.133 85.964,662.466 83,658.5C 82.8333,658.833 82.6667,659.167 82.5,659.5C 87.468,667.745 91.468,676.412 94.5,685.5C 85.9532,676.765 80.1199,666.432 77,654.5C 76,653.167 75,651.833 74,650.5C 73.3333,651.833 72.6667,651.833 72,650.5C 65.1274,636.353 58.9607,622.02 53.5,607.5C 52.6766,604.539 52.01,601.539 51.5,598.5C 57.0503,596.09 60.217,591.756 61,585.5C 63.4955,572.195 65.6622,558.862 67.5,545.5C 72.5,547.667 77.5,549.833 82.5,552C 82.9951,565.8 85.8284,579.3 91,592.5C 97.5135,608.528 104.847,624.195 113,639.5C 113.654,640.696 114.154,640.696 114.5,639.5C 113.434,635.99 112.434,632.49 111.5,629C 112,628.5 112.5,628 113,627.5C 116.503,630.513 119.003,634.18 120.5,638.5C 119.382,640.571 118.382,642.738 117.5,645C 122.592,653.425 129.592,659.758 138.5,664C 155.977,679.812 169.143,698.645 178,720.5C 225.574,767.979 282.074,800.479 347.5,818C 381.485,827.025 415.985,833.192 451,836.5C 473.436,832.633 495.936,829.133 518.5,826C 528.216,824.317 537.716,821.817 547,818.5C 548.653,818.82 549.653,819.82 550,821.5C 553.636,819.266 557.469,817.432 561.5,816C 585.634,810.842 609.468,804.675 633,797.5C 634.28,797.613 635.113,798.28 635.5,799.5C 634.687,800.814 633.687,801.981 632.5,803C 622.757,809.067 612.757,814.734 602.5,820C 601.5,821 600.5,822 599.5,823C 601.614,824.518 603.947,824.851 606.5,824C 618.068,820.717 629.068,816.051 639.5,810C 652.833,800.667 666.167,791.333 679.5,782C 695.597,774.895 709.764,765.062 722,752.5C 725.735,746.096 730.235,740.263 735.5,735C 734.975,734.308 734.308,733.808 733.5,733.5C 730.916,734.393 728.249,734.726 725.5,734.5C 725.351,733.448 725.517,732.448 726,731.5C 746.648,710.844 768.481,691.677 791.5,674C 806.743,660.098 818.909,643.932 828,625.5C 830.236,615.281 831.236,604.948 831,594.5C 830.282,593.549 829.449,593.383 828.5,594C 823.797,599.234 819.963,605.067 817,611.5C 815.067,619.298 812.734,626.965 810,634.5C 806.5,638 803,641.5 799.5,645C 798.668,645.688 798.002,645.521 797.5,644.5C 804.996,632.508 811.163,619.841 816,606.5C 816.758,604.231 816.591,602.064 815.5,600C 821.889,594.064 826.389,586.898 829,578.5C 834.866,558.574 838.533,538.241 840,517.5C 840.605,515.519 841.605,515.185 843,516.5C 845.206,521.286 846.706,526.286 847.5,531.5C 843.905,542.452 840.405,553.452 837,564.5C 835.153,571.76 834.153,579.094 834,586.5C 859.824,526.227 869.158,463.56 862,398.5C 858.701,393.4 855.535,388.234 852.5,383C 854.544,380.943 855.71,378.443 856,375.5C 856.499,370.511 856.666,365.511 856.5,360.5C 858.125,363.75 859.792,367.084 861.5,370.5C 861.833,369.833 862.167,369.167 862.5,368.5C 860.075,356.122 856.742,344.122 852.5,332.5C 850.267,324.126 847.267,316.126 843.5,308.5C 843.351,307.448 843.517,306.448 844,305.5C 854.226,327.511 861.226,350.511 865,374.5C 864.645,384.538 866.311,394.204 870,403.5C 879.503,471.975 872.17,538.641 848,603.5C 852.965,585.255 857.965,566.922 863,548.5C 863.667,543.167 863.667,537.833 863,532.5C 859.099,552.67 854.432,572.67 849,592.5C 846.667,598.833 844.333,605.167 842,611.5C 837.227,619.393 833.727,627.727 831.5,636.5 Z"/></g>
<g><path style="opacity:0.783" fill="#96c9e1" d="M 852.5,332.5 C 856.742,344.122 860.075,356.122 862.5,368.5C 862.167,369.167 861.833,369.833 861.5,370.5C 859.792,367.084 858.125,363.75 856.5,360.5C 856.5,359.833 856.5,359.167 856.5,358.5C 855.814,349.72 854.481,341.053 852.5,332.5 Z"/></g>
<g><path style="opacity:0.501" fill="#8fd1e0" d="M 28.5,527.5 C 28.5,528.5 28.5,529.5 28.5,530.5C 28.8321,535.161 29.1654,539.828 29.5,544.5C 27.6682,553.439 28.0015,562.439 30.5,571.5C 30.3333,572.167 30.1667,572.833 30,573.5C 29.1482,572.429 28.3149,571.429 27.5,570.5C 27.7373,569.209 27.404,568.209 26.5,567.5C 20.7842,543.823 17.1175,519.823 15.5,495.5C 15.5,492.5 15.5,489.5 15.5,486.5C 16.7135,482.307 17.8802,477.974 19,473.5C 20.016,472.366 20.6827,472.699 21,474.5C 23.3183,492.2 25.8183,509.866 28.5,527.5 Z"/></g>
<g><path style="opacity:0.457" fill="#9bc2e2" d="M 15.5,486.5 C 15.5,489.5 15.5,492.5 15.5,495.5C 14.5088,502.313 14.1755,509.313 14.5,516.5C 13.14,505.63 13.3066,494.63 15,483.5C 15.4828,484.448 15.6495,485.448 15.5,486.5 Z"/></g>
<g><path style="opacity:0.459" fill="#9fbce2" d="M 14.5,517.5 C 16.8438,534.55 20.8438,551.216 26.5,567.5C 26.2627,568.791 26.596,569.791 27.5,570.5C 30.4276,580.786 33.261,591.12 36,601.5C 37.1601,606.434 37.6601,611.434 37.5,616.5C 26.2356,584.436 18.5689,551.436 14.5,517.5 Z"/></g>
<g><path style="opacity:0.498" fill="#8fd1e0" d="M 37.5,558.5 C 37.5,558.833 37.5,559.167 37.5,559.5C 38.1667,559.5 38.5,559.833 38.5,560.5C 38.8333,561.167 39.1667,561.833 39.5,562.5C 40.1667,562.5 40.5,562.833 40.5,563.5C 41.1667,563.5 41.5,563.833 41.5,564.5C 44.5316,575.967 47.865,587.301 51.5,598.5C 52.01,601.539 52.6766,604.539 53.5,607.5C 59.1281,638.085 71.2948,665.752 90,690.5C 98,700.5 106,710.5 114,720.5C 140.108,748.609 166.941,776.109 194.5,803C 197.397,805.41 200.397,807.577 203.5,809.5C 209.476,814.826 216.143,819.159 223.5,822.5C 225.336,824.588 227.669,825.921 230.5,826.5C 236.229,831.36 242.896,834.026 250.5,834.5C 250.5,832.833 250.5,831.167 250.5,829.5C 279.252,843.875 309.252,854.875 340.5,862.5C 340.842,863.338 341.508,863.672 342.5,863.5C 343.167,863.5 343.833,863.5 344.5,863.5C 344.5,864.167 344.833,864.5 345.5,864.5C 354.065,866.68 362.732,868.346 371.5,869.5C 387.557,872.841 403.89,875.175 420.5,876.5C 420.389,877.117 420.056,877.617 419.5,878C 441.328,882.146 463.328,884.146 485.5,884C 488.975,883.624 491.975,882.291 494.5,880C 478.874,878.378 463.207,877.544 447.5,877.5C 447.5,877.167 447.5,876.833 447.5,876.5C 447.833,876.5 448.167,876.5 448.5,876.5C 473.211,875.983 497.544,873.317 521.5,868.5C 521.833,868.5 522.167,868.5 522.5,868.5C 524.099,868.768 525.432,868.434 526.5,867.5C 529.86,867.384 533.193,867.051 536.5,866.5C 540.514,866.666 544.514,866.499 548.5,866C 557.979,862.897 567.312,859.73 576.5,856.5C 587.922,852.809 599.256,848.809 610.5,844.5C 611.167,844.5 611.5,844.167 611.5,843.5C 613.001,842.248 614.668,841.248 616.5,840.5C 617.167,840.5 617.5,840.167 617.5,839.5C 636.975,830.936 655.309,820.603 672.5,808.5C 674.494,807.65 676.494,807.15 678.5,807C 674.452,810.716 670.118,814.05 665.5,817C 653.598,823.783 641.598,830.283 629.5,836.5C 633.29,836.008 633.956,836.841 631.5,839C 621.531,844.153 611.531,848.986 601.5,853.5C 615.827,849.332 629.493,843.498 642.5,836C 659.833,825.333 677.167,814.667 694.5,804C 709.921,794.446 723.588,782.78 735.5,769C 734.244,768.583 733.577,767.75 733.5,766.5C 752.2,750.133 769.534,732.467 785.5,713.5C 786.167,713.5 786.5,713.167 786.5,712.5C 787.167,712.5 787.5,712.167 787.5,711.5C 788.167,711.5 788.5,711.167 788.5,710.5C 789.906,710.027 790.573,709.027 790.5,707.5C 791.167,707.5 791.5,707.167 791.5,706.5C 804.819,692.845 815.819,677.511 824.5,660.5C 825.338,660.158 825.672,659.492 825.5,658.5C 826.167,658.5 826.5,658.167 826.5,657.5C 826.833,656.833 827.167,656.167 827.5,655.5C 828.167,655.5 828.5,655.167 828.5,654.5C 831.237,649.458 833.904,644.458 836.5,639.5C 838.741,635.407 841.241,631.407 844,627.5C 844.388,628.428 845.055,629.095 846,629.5C 847.981,628.35 849.814,627.016 851.5,625.5C 848.45,634.042 843.95,641.709 838,648.5C 792.502,737.332 724.668,803.165 634.5,846C 623.846,849.994 613.846,854.994 604.5,861C 594.331,865.333 583.998,869.167 573.5,872.5C 572.5,872.5 571.5,872.5 570.5,872.5C 560.666,870.225 551.332,871.392 542.5,876C 546.026,877.337 549.692,877.837 553.5,877.5C 536.669,882.612 519.336,885.779 501.5,887C 480.556,889.205 459.556,890.538 438.5,891C 452.833,891.333 467.167,891.667 481.5,892C 473.454,893.843 465.288,894.676 457,894.5C 440.12,893.997 423.286,892.831 406.5,891C 405.328,890.581 404.328,889.915 403.5,889C 384.967,886.46 366.634,882.96 348.5,878.5C 346.485,877.076 344.152,876.41 341.5,876.5C 341.158,875.662 340.492,875.328 339.5,875.5C 339.167,875.5 338.833,875.5 338.5,875.5C 338.158,874.662 337.492,874.328 336.5,874.5C 335.833,874.5 335.167,874.5 334.5,874.5C 334.5,873.833 334.167,873.5 333.5,873.5C 332.833,873.5 332.167,873.5 331.5,873.5C 331.5,872.833 331.167,872.5 330.5,872.5C 320.155,869.163 309.822,865.829 299.5,862.5C 294.978,860.437 290.312,858.77 285.5,857.5C 290.311,860.07 295.311,862.403 300.5,864.5C 301.694,865.272 302.694,866.272 303.5,867.5C 280.153,859.826 257.82,849.826 236.5,837.5C 236.167,837.667 235.833,837.833 235.5,838C 237.927,839.554 237.927,840.721 235.5,841.5C 230.375,839.438 225.375,837.104 220.5,834.5C 220.5,833.833 220.167,833.5 219.5,833.5C 219.167,833.5 218.833,833.5 218.5,833.5C 218.5,832.833 218.167,832.5 217.5,832.5C 216.833,832.167 216.167,831.833 215.5,831.5C 215.5,830.833 215.167,830.5 214.5,830.5C 209.196,827.188 204.196,823.521 199.5,819.5C 195.167,814.833 190.833,810.167 186.5,805.5C 187.833,805.167 187.833,804.833 186.5,804.5C 186.5,803.833 186.167,803.5 185.5,803.5C 184.833,802.167 183.833,801.167 182.5,800.5C 181.962,798.883 181.629,797.216 181.5,795.5C 184.999,795.741 185.332,794.908 182.5,793C 173.833,786 165.167,779 156.5,772C 148.251,766.709 139.585,762.209 130.5,758.5C 128.833,757.167 127.167,755.833 125.5,754.5C 125.5,753.833 125.167,753.5 124.5,753.5C 124.5,752.833 124.167,752.5 123.5,752.5C 123.5,751.833 123.167,751.5 122.5,751.5C 94.0356,720.506 70.8689,685.839 53,647.5C 47.5057,634.684 43.0057,621.517 39.5,608C 40.5067,606.48 41.1734,604.813 41.5,603C 39.7514,589.678 38.0847,576.344 36.5,563C 36.5085,561.293 36.8418,559.793 37.5,558.5 Z M 824.5,660.5 C 815.819,677.511 804.819,692.845 791.5,706.5C 799.918,694.67 807.585,682.337 814.5,669.5C 816.543,668.421 817.876,666.754 818.5,664.5C 820.754,663.585 822.754,662.252 824.5,660.5 Z M 790.5,707.5 C 790.573,709.027 789.906,710.027 788.5,710.5C 788.427,708.973 789.094,707.973 790.5,707.5 Z M 733.5,766.5 C 733.577,767.75 734.244,768.583 735.5,769C 723.588,782.78 709.921,794.446 694.5,804C 677.167,814.667 659.833,825.333 642.5,836C 629.493,843.498 615.827,849.332 601.5,853.5C 611.531,848.986 621.531,844.153 631.5,839C 633.956,836.841 633.29,836.008 629.5,836.5C 641.598,830.283 653.598,823.783 665.5,817C 670.118,814.05 674.452,810.716 678.5,807C 676.494,807.15 674.494,807.65 672.5,808.5C 693.91,796.094 714.244,782.094 733.5,766.5 Z M 179.5,773.5 C 202.283,788.733 224.949,804.233 247.5,820C 263.6,829.717 280.267,838.384 297.5,846C 304.576,849.221 311.91,851.221 319.5,852C 309.711,846.027 300.378,839.527 291.5,832.5C 298.957,834.151 306.291,836.318 313.5,839C 336.841,848.502 360.508,857.168 384.5,865C 399.351,869.13 414.351,872.464 429.5,875C 427.618,875.198 425.952,875.698 424.5,876.5C 423.167,876.5 421.833,876.5 420.5,876.5C 403.89,875.175 387.557,872.841 371.5,869.5C 372.873,869.657 374.207,869.49 375.5,869C 362.354,862.784 348.687,858.284 334.5,855.5C 334.351,856.552 334.517,857.552 335,858.5C 336.812,859.977 338.645,861.31 340.5,862.5C 309.252,854.875 279.252,843.875 250.5,829.5C 250.5,828.833 250.167,828.5 249.5,828.5C 247.372,825.87 245.039,823.37 242.5,821C 227.326,810.914 212.326,800.58 197.5,790C 191.237,784.716 185.237,779.216 179.5,773.5 Z M 672.5,808.5 C 655.309,820.603 636.975,830.936 617.5,839.5C 618.9,837.061 618.233,835.228 615.5,834C 634.984,826.562 653.984,818.062 672.5,808.5 Z M 285.5,857.5 C 290.312,858.77 294.978,860.437 299.5,862.5C 299.833,863.167 300.167,863.833 300.5,864.5C 295.311,862.403 290.311,860.07 285.5,857.5 Z M 521.5,868.5 C 497.544,873.317 473.211,875.983 448.5,876.5C 452.625,875.033 456.958,873.867 461.5,873C 481.531,871.83 501.531,870.33 521.5,868.5 Z"/></g>
<g><path style="opacity:0.792" fill="#96cbe2" d="M 53.5,607.5 C 58.9607,622.02 65.1274,636.353 72,650.5C 72.6667,651.833 73.3333,651.833 74,650.5C 75,651.833 76,653.167 77,654.5C 80.1199,666.432 85.9532,676.765 94.5,685.5C 96.1921,687.205 97.5254,689.205 98.5,691.5C 99.0798,693.749 100.413,695.415 102.5,696.5C 104.139,698.806 106.139,700.806 108.5,702.5C 119.758,718.27 131.258,733.937 143,749.5C 174.168,781.858 209.668,808.191 249.5,828.5C 250.167,828.5 250.5,828.833 250.5,829.5C 250.5,831.167 250.5,832.833 250.5,834.5C 242.896,834.026 236.229,831.36 230.5,826.5C 228.664,824.412 226.331,823.079 223.5,822.5C 217.183,817.672 210.516,813.338 203.5,809.5C 200.397,807.577 197.397,805.41 194.5,803C 166.941,776.109 140.108,748.609 114,720.5C 106,710.5 98,700.5 90,690.5C 71.2948,665.752 59.1281,638.085 53.5,607.5 Z"/></g>
<g><path style="opacity:0.515" fill="#9fbce1" d="M 836.5,639.5 C 833.904,644.458 831.237,649.458 828.5,654.5C 827.833,654.5 827.5,654.833 827.5,655.5C 827.167,656.167 826.833,656.833 826.5,657.5C 825.833,657.5 825.5,657.833 825.5,658.5C 824.662,658.842 824.328,659.508 824.5,660.5C 822.754,662.252 820.754,663.585 818.5,664.5C 823.898,655.702 828.231,646.369 831.5,636.5C 835.034,629.102 838.867,621.769 843,614.5C 841.314,622.908 839.148,631.241 836.5,639.5 Z"/></g>
<g><path style="opacity:0.775" fill="#96c9e1" d="M 831.5,636.5 C 828.231,646.369 823.898,655.702 818.5,664.5C 817.876,666.754 816.543,668.421 814.5,669.5C 819.915,658.336 825.582,647.336 831.5,636.5 Z"/></g>
<g><path style="opacity:0.549" fill="#f7f9fc" d="M 108.5,702.5 C 106.139,700.806 104.139,698.806 102.5,696.5C 101.92,694.251 100.587,692.585 98.5,691.5C 97.5254,689.205 96.1921,687.205 94.5,685.5C 91.468,676.412 87.468,667.745 82.5,659.5C 82.6667,659.167 82.8333,658.833 83,658.5C 85.964,662.466 89.2974,666.133 93,669.5C 91.4913,661.798 89.8246,654.132 88,646.5C 91.2159,652.264 93.8825,658.264 96,664.5C 95.5558,678.838 100.056,691.338 109.5,702C 109.272,702.399 108.938,702.565 108.5,702.5 Z"/></g>
<g><path style="opacity:0.549" fill="#c3e6ee" d="M 72.5,673.5 C 73.3909,674.261 74.0576,675.261 74.5,676.5C 74.0302,677.463 73.3635,677.463 72.5,676.5C 70.2513,674.669 69.0846,672.336 69,669.5C 69.9487,671.093 71.1154,672.426 72.5,673.5 Z"/></g>
<g><path style="opacity:0.549" fill="#f0f8fa" d="M 72.5,676.5 C 73.3635,677.463 74.0302,677.463 74.5,676.5C 74.0576,675.261 73.3909,674.261 72.5,673.5C 71.0392,670.606 70.2058,667.606 70,664.5C 75.2483,674.582 79.915,684.915 84,695.5C 87.2516,700.023 89.9183,704.69 92,709.5C 84.469,699.104 77.969,688.104 72.5,676.5 Z"/></g>
<g><path style="opacity:0.796" fill="#bbe1ea" d="M 98.5,691.5 C 100.587,692.585 101.92,694.251 102.5,696.5C 100.413,695.415 99.0798,693.749 98.5,691.5 Z"/></g>
<g><path style="opacity:0.135" fill="#8fd2df" d="M 93.5,722.5 C 93.5,723.167 93.5,723.833 93.5,724.5C 90.8133,722.606 90.8133,721.939 93.5,722.5 Z"/></g>
<g><path style="opacity:0.479" fill="#9fbce1" d="M 122.5,751.5 C 123.167,751.5 123.5,751.833 123.5,752.5C 124.167,752.5 124.5,752.833 124.5,753.5C 125.167,753.5 125.5,753.833 125.5,754.5C 127.167,755.833 128.833,757.167 130.5,758.5C 137.631,766.132 144.964,773.632 152.5,781C 129.858,765.53 110.192,746.697 93.5,724.5C 93.5,723.833 93.5,723.167 93.5,722.5C 93.4346,722.062 93.6012,721.728 94,721.5C 101.983,732.982 111.483,742.982 122.5,751.5 Z"/></g>
<g><path style="opacity:0.772" fill="#96cae1" d="M 93.5,724.5 C 110.192,746.697 129.858,765.53 152.5,781C 144.964,773.632 137.631,766.132 130.5,758.5C 139.585,762.209 148.251,766.709 156.5,772C 165.167,779 173.833,786 182.5,793C 185.332,794.908 184.999,795.741 181.5,795.5C 181.629,797.216 181.962,798.883 182.5,800.5C 179.681,798.581 177.014,796.415 174.5,794C 173.833,793.333 173.167,793.333 172.5,794C 176.708,797.713 181.041,801.213 185.5,804.5C 185.833,804.5 186.167,804.5 186.5,804.5C 186.5,804.833 186.5,805.167 186.5,805.5C 190.833,810.167 195.167,814.833 199.5,819.5C 190.876,815.058 183.21,809.225 176.5,802C 175.241,801.018 173.908,800.685 172.5,801C 186.233,814.358 201.233,826.025 217.5,836C 240.126,848.48 263.126,860.146 286.5,871C 283.743,871.584 281.077,871.25 278.5,870C 265.205,864.352 252.205,858.185 239.5,851.5C 213.452,837.15 188.785,820.817 165.5,802.5C 145.199,785.2 126.199,766.533 108.5,746.5C 102.726,739.72 97.7255,732.387 93.5,724.5 Z"/></g>
<g><path style="opacity:0.367" fill="#9fbde2" d="M 108.5,746.5 C 126.199,766.533 145.199,785.2 165.5,802.5C 143.208,787.209 124.208,768.542 108.5,746.5 Z"/></g>
<g><path style="opacity:0.409" fill="#9fbce1" d="M 670.5,762.5 C 671.465,763.721 671.298,765.054 670,766.5C 665.041,772.465 659.208,777.298 652.5,781C 639.296,787.939 625.962,794.272 612.5,800C 632.068,787.725 651.402,775.225 670.5,762.5 Z"/></g>
<g><path style="opacity:0.549" fill="#f1f5fa" d="M 223.5,785.5 C 224.721,784.535 226.054,784.702 227.5,786C 238.167,792.333 248.833,798.667 259.5,805C 245.96,801.396 233.96,794.896 223.5,785.5 Z"/></g>
<g><path style="opacity:0.576" fill="#9cc0e1" d="M 182.5,800.5 C 183.833,801.167 184.833,802.167 185.5,803.5C 185.5,803.833 185.5,804.167 185.5,804.5C 181.041,801.213 176.708,797.713 172.5,794C 173.167,793.333 173.833,793.333 174.5,794C 177.014,796.415 179.681,798.581 182.5,800.5 Z"/></g>
<g><path style="opacity:0.476" fill="#9fbce1" d="M 199.5,819.5 C 204.196,823.521 209.196,827.188 214.5,830.5C 215.167,830.5 215.5,830.833 215.5,831.5C 216.167,831.833 216.833,832.167 217.5,832.5C 218.167,832.5 218.5,832.833 218.5,833.5C 218.833,833.5 219.167,833.5 219.5,833.5C 220.167,833.5 220.5,833.833 220.5,834.5C 225.375,837.104 230.375,839.438 235.5,841.5C 252.237,851.202 269.57,859.868 287.5,867.5C 289.833,868.833 292.167,870.167 294.5,871.5C 294.5,872.167 294.833,872.5 295.5,872.5C 296.867,876.297 295.367,877.964 291,877.5C 284.959,876.82 279.125,875.32 273.5,873C 261.726,866.365 250.393,859.199 239.5,851.5C 252.205,858.185 265.205,864.352 278.5,870C 281.077,871.25 283.743,871.584 286.5,871C 263.126,860.146 240.126,848.48 217.5,836C 201.233,826.025 186.233,814.358 172.5,801C 173.908,800.685 175.241,801.018 176.5,802C 183.21,809.225 190.876,815.058 199.5,819.5 Z"/></g>
<g><path style="opacity:0.796" fill="#d0e3f1" d="M 203.5,809.5 C 210.516,813.338 217.183,817.672 223.5,822.5C 216.143,819.159 209.476,814.826 203.5,809.5 Z"/></g>
<g><path style="opacity:0.796" fill="#c6dfee" d="M 223.5,822.5 C 226.331,823.079 228.664,824.412 230.5,826.5C 227.669,825.921 225.336,824.588 223.5,822.5 Z"/></g>
<g><path style="opacity:0.442" fill="#9fbce1" d="M 371.5,869.5 C 362.732,868.346 354.065,866.68 345.5,864.5C 344.833,864.5 344.5,864.167 344.5,863.5C 343.833,863.5 343.167,863.5 342.5,863.5C 342.158,862.662 341.492,862.328 340.5,862.5C 338.645,861.31 336.812,859.977 335,858.5C 334.517,857.552 334.351,856.552 334.5,855.5C 348.687,858.284 362.354,862.784 375.5,869C 374.207,869.49 372.873,869.657 371.5,869.5 Z"/></g>
<g><path style="opacity:0.749" fill="#96cae1" d="M 576.5,856.5 C 567.312,859.73 557.979,862.897 548.5,866C 544.514,866.499 540.514,866.666 536.5,866.5C 549.588,863.359 562.921,860.025 576.5,856.5 Z"/></g>
<g><path style="opacity:0.494" fill="#9fbce1" d="M 299.5,862.5 C 309.822,865.829 320.155,869.163 330.5,872.5C 330.5,872.833 330.5,873.167 330.5,873.5C 327.42,873.252 324.42,872.586 321.5,871.5C 319.627,871.482 319.294,871.982 320.5,873C 329.202,876.592 338.202,879.092 347.5,880.5C 351.725,881.879 356.058,882.879 360.5,883.5C 365.408,885.954 370.408,888.454 375.5,891C 378.242,892.886 379.909,895.386 380.5,898.5C 383.067,898.721 385.401,899.388 387.5,900.5C 385.167,900.5 382.833,900.5 380.5,900.5C 371.845,897.502 363.178,894.502 354.5,891.5C 361.425,893.252 368.425,894.419 375.5,895C 357.812,889.604 340.145,884.104 322.5,878.5C 319.406,877.787 316.406,876.787 313.5,875.5C 313.5,874.833 313.167,874.5 312.5,874.5C 312.167,874.5 311.833,874.5 311.5,874.5C 308.833,872.167 306.167,869.833 303.5,867.5C 302.694,866.272 301.694,865.272 300.5,864.5C 300.167,863.833 299.833,863.167 299.5,862.5 Z"/></g>
<g><path style="opacity:0.394" fill="#8fd1e0" d="M 287.5,867.5 C 287.735,866.903 288.235,866.57 289,866.5C 296.486,869.273 303.986,871.939 311.5,874.5C 311.833,874.5 312.167,874.5 312.5,874.5C 313.167,874.5 313.5,874.833 313.5,875.5C 316.406,876.787 319.406,877.787 322.5,878.5C 328.221,882.027 334.221,885.027 340.5,887.5C 325.023,883.897 310.023,878.897 295.5,872.5C 294.833,872.5 294.5,872.167 294.5,871.5C 292.167,870.167 289.833,868.833 287.5,867.5 Z"/></g>
<g><path style="opacity:0.301" fill="#8fd2df" d="M 613.5,867.5 C 614.552,867.351 615.552,867.517 616.5,868C 604.636,874.796 591.969,879.129 578.5,881C 590.227,876.374 601.893,871.874 613.5,867.5 Z"/></g>
<g><path style="opacity:0.412" fill="#9fbce1" d="M 631.5,869.5 C 632.873,869.343 634.207,869.51 635.5,870C 632.167,872.667 628.833,875.333 625.5,878C 615.968,880.413 606.635,882.246 597.5,883.5C 608.346,877.446 619.68,872.779 631.5,869.5 Z"/></g>
<g><path style="opacity:0.786" fill="#95cbe1" d="M 570.5,872.5 C 566.783,873.68 563.116,875.013 559.5,876.5C 557.735,877.461 555.735,877.795 553.5,877.5C 549.692,877.837 546.026,877.337 542.5,876C 551.332,871.392 560.666,870.225 570.5,872.5 Z"/></g>
<g><path style="opacity:0.747" fill="#98c7e1" d="M 330.5,873.5 C 330.833,873.5 331.167,873.5 331.5,873.5C 332.167,873.5 332.833,873.5 333.5,873.5C 334.167,873.5 334.5,873.833 334.5,874.5C 335.167,874.5 335.833,874.5 336.5,874.5C 336.842,875.338 337.508,875.672 338.5,875.5C 338.833,875.5 339.167,875.5 339.5,875.5C 339.842,876.338 340.508,876.672 341.5,876.5C 342.93,877.537 344.597,878.204 346.5,878.5C 346.833,879.167 347.167,879.833 347.5,880.5C 338.202,879.092 329.202,876.592 320.5,873C 319.294,871.982 319.627,871.482 321.5,871.5C 324.42,872.586 327.42,873.252 330.5,873.5 Z"/></g>
<g><path style="opacity:0.371" fill="#9fbce1" d="M 570.5,872.5 C 571.5,872.5 572.5,872.5 573.5,872.5C 572.942,873.79 571.942,874.623 570.5,875C 566.914,876.108 563.247,876.608 559.5,876.5C 563.116,875.013 566.783,873.68 570.5,872.5 Z"/></g>
<g><path style="opacity:0.794" fill="#95cce1" d="M 420.5,876.5 C 421.833,876.5 423.167,876.5 424.5,876.5C 431.648,877.492 438.981,877.825 446.5,877.5C 446.833,877.5 447.167,877.5 447.5,877.5C 463.207,877.544 478.874,878.378 494.5,880C 491.975,882.291 488.975,883.624 485.5,884C 463.328,884.146 441.328,882.146 419.5,878C 420.056,877.617 420.389,877.117 420.5,876.5 Z"/></g>
<g><path style="opacity:0.232" fill="#90d0e0" d="M 346.5,878.5 C 347.167,878.5 347.833,878.5 348.5,878.5C 352.619,879.864 356.619,881.531 360.5,883.5C 356.058,882.879 351.725,881.879 347.5,880.5C 347.167,879.833 346.833,879.167 346.5,878.5 Z"/></g>
<g><path style="opacity:0.334" fill="#8fd2df" d="M 555.5,880.5 C 556.552,880.351 557.552,880.517 558.5,881C 548.573,884.895 538.24,886.562 527.5,886C 536.824,883.394 546.157,881.561 555.5,880.5 Z"/></g>
<g><path style="opacity:0.782" fill="#96c9e1" d="M 322.5,878.5 C 340.145,884.104 357.812,889.604 375.5,895C 368.425,894.419 361.425,893.252 354.5,891.5C 349.57,890.741 344.903,889.408 340.5,887.5C 334.221,885.027 328.221,882.027 322.5,878.5 Z"/></g>
<g><path style="opacity:0.464" fill="#9fbce2" d="M 532.5,900.5 C 528.833,900.5 525.167,900.5 521.5,900.5C 519.861,899.527 518.527,898.194 517.5,896.5C 523.253,893.56 529.253,891.227 535.5,889.5C 557.096,885.92 557.762,888.086 537.5,896C 540.713,896.703 543.879,896.536 547,895.5C 548.722,895.611 548.888,896.111 547.5,897C 542.336,898.043 537.336,899.21 532.5,900.5 Z"/></g>
<g><path style="opacity:0.749" fill="#96cae1" d="M 535.5,889.5 C 529.253,891.227 523.253,893.56 517.5,896.5C 517.167,896.5 516.833,896.5 516.5,896.5C 515.5,895.167 514.5,893.833 513.5,892.5C 520.718,890.945 528.052,889.945 535.5,889.5 Z"/></g>
<g><path style="opacity:0.4" fill="#8fd1e0" d="M 513.5,892.5 C 514.5,893.833 515.5,895.167 516.5,896.5C 510.012,898.122 503.679,897.622 497.5,895C 502.773,893.747 508.106,892.913 513.5,892.5 Z"/></g>
</svg>
